<?xml version="1.0" encoding="utf-8"?>
<!-- Generator: Adobe Illustrator 19.2.1, SVG Export Plug-In . SVG Version: 6.00 Build 0)  -->
<!DOCTYPE svg PUBLIC "-//W3C//DTD SVG 1.1//EN" "http://www.w3.org/Graphics/SVG/1.1/DTD/svg11.dtd">
<svg version="1.1" id="Layer_1" xmlns="http://www.w3.org/2000/svg" xmlns:xlink="http://www.w3.org/1999/xlink" x="0px" y="0px"
	 width="1906.4px" height="938.9px" viewBox="0 0 1906.4 938.9" style="enable-background:new 0 0 1906.4 938.9;"
	 xml:space="preserve">
<style type="text/css">
	.st0{fill:#30CC72;}
</style>
<title>crosses</title>
<g id="swiss-cross">
	<polygon class="st0" points="139,121.2 139,178.6 89.8,178.6 89.8,121.2 32.4,121.2 32.4,72 89.8,72 89.8,14.6 139,14.6 139,72 
		196.4,72 196.4,121.2 	"/>
</g>
<g id="swiss-cross-2">
	<polygon class="st0" points="284.5,329.1 284.5,366.9 252.2,366.9 252.2,329.1 214.4,329.1 214.4,296.8 252.2,296.8 252.2,259 
		284.5,259 284.5,296.8 322.3,296.8 322.3,329.1 	"/>
</g>
<g id="swiss-cross-3">
	<polygon class="st0" points="652.5,385.6 652.5,429.2 615.1,429.2 615.1,385.6 571.5,385.6 571.5,348.2 615.1,348.2 615.1,304.5 
		652.5,304.5 652.5,348.2 696.1,348.2 696.1,385.6 	"/>
</g>
<g id="swiss-cross-4">
	<polygon class="st0" points="1024.1,856.1 1024.1,889.8 995.2,889.8 995.2,856.1 961.5,856.1 961.5,827.2 995.2,827.2 995.2,793.4 
		1024.1,793.4 1024.1,827.2 1057.8,827.2 1057.8,856.1 	"/>
</g>
<g id="swiss-cross-5">
	<polygon class="st0" points="1705.6,345.9 1705.6,386.9 1670.5,386.9 1670.5,345.9 1629.6,345.9 1629.6,310.8 1670.5,310.8 
		1670.5,269.9 1705.6,269.9 1705.6,310.8 1746.5,310.8 1746.5,345.9 	"/>
</g>
<g id="swiss-cross-6">
	<polygon class="st0" points="863.7,182.2 863.7,233.9 819.3,233.9 819.3,182.2 767.5,182.2 767.5,137.8 819.3,137.8 819.3,86 
		863.7,86 863.7,137.8 915.5,137.8 915.5,182.2 	"/>
</g>
<g id="swiss-cross-7">
	<polygon class="st0" points="1251.9,101 1251.9,151.4 1208.6,151.4 1208.6,101 1158.2,101 1158.2,57.8 1208.6,57.8 1208.6,7.3 
		1251.9,7.3 1251.9,57.8 1302.3,57.8 1302.3,101 	"/>
</g>
<g id="swiss-cross-8">
	<polygon class="st0" points="1327.3,337.5 1327.3,355.3 1312,355.3 1312,337.5 1294.2,337.5 1294.2,322.2 1312,322.2 1312,304.4 
		1327.3,304.4 1327.3,322.2 1345.2,322.2 1345.2,337.5 	"/>
</g>
<g id="swiss-cross-9">
	<polygon class="st0" points="1803.9,771.7 1803.9,821.2 1761.5,821.2 1761.5,771.7 1712,771.7 1712,729.3 1761.5,729.3 
		1761.5,679.8 1803.9,679.8 1803.9,729.3 1853.4,729.3 1853.4,771.7 	"/>
</g>
<g id="swiss-cross-10">
	<polygon class="st0" points="1799.4,89.4 1799.4,137.6 1758.1,137.6 1758.1,89.4 1710,89.4 1710,48.2 1758.1,48.2 1758.1,0 
		1799.4,0 1799.4,48.2 1847.6,48.2 1847.6,89.4 	"/>
</g>
<g id="swiss-cross-11">
	<polygon class="st0" points="594.5,864.7 594.5,918.6 548.4,918.6 548.4,864.7 494.5,864.7 494.5,818.5 548.4,818.5 548.4,764.6 
		594.5,764.6 594.5,818.5 648.4,818.5 648.4,864.7 	"/>
</g>
<g id="swiss-cross-12">
	<polygon class="st0" points="75.1,834.5 75.1,875 40.5,875 40.5,834.5 0,834.5 0,799.9 40.5,799.9 40.5,759.4 75.1,759.4 
		75.1,799.9 115.6,799.9 115.6,834.5 	"/>
</g>
<g id="swiss-cross-13">
	<polygon class="st0" points="154.1,572.9 154.1,624.7 109.6,624.7 109.6,572.9 57.8,572.9 57.8,528.4 109.6,528.4 109.6,476.6 
		154.1,476.6 154.1,528.4 205.9,528.4 205.9,572.9 	"/>
</g>
<g id="swiss-cross-14">
	<polygon class="st0" points="537.4,104.8 537.4,136.6 510.2,136.6 510.2,104.8 478.4,104.8 478.4,77.6 510.2,77.6 510.2,45.8 
		537.4,45.8 537.4,77.6 569.2,77.6 569.2,104.8 	"/>
</g>
<g id="swiss-cross-15">
	<polygon class="st0" points="448.3,582.1 448.3,618.7 417,618.7 417,582.1 380.4,582.1 380.4,550.8 417,550.8 417,514.2 
		448.3,514.2 448.3,550.8 484.9,550.8 484.9,582.1 	"/>
</g>
<g id="swiss-cross-16">
	<polygon class="st0" points="1052.9,376.4 1052.9,425.7 1010.7,425.7 1010.7,376.4 961.5,376.4 961.5,334.2 1010.7,334.2 
		1010.7,284.9 1052.9,284.9 1052.9,334.2 1102.2,334.2 1102.2,376.4 	"/>
</g>
<g id="swiss-cross-17">
	<polygon class="st0" points="1153.4,636.5 1153.4,664.1 1129.8,664.1 1129.8,636.5 1102.2,636.5 1102.2,612.9 1129.8,612.9 
		1129.8,585.3 1153.4,585.3 1153.4,612.9 1181,612.9 1181,636.5 	"/>
</g>
<g id="swiss-cross-18">
	<polygon class="st0" points="845,635.2 845,685.1 802.3,685.1 802.3,635.2 752.3,635.2 752.3,592.4 802.3,592.4 802.3,542.5 
		845,542.5 845,592.4 895,592.4 895,635.2 	"/>
</g>
<g id="swiss-cross-19">
	<polygon class="st0" points="1620.4,920.9 1620.4,938.9 1605.1,938.9 1605.1,920.9 1587.1,920.9 1587.1,905.5 1605.1,905.5 
		1605.1,887.6 1620.4,887.6 1620.4,905.5 1638.4,905.5 1638.4,920.9 	"/>
</g>
<g id="swiss-cross-20">
	<polygon class="st0" points="1880.9,525.1 1880.9,550.6 1859.1,550.6 1859.1,525.1 1833.6,525.1 1833.6,503.3 1859.1,503.3 
		1859.1,477.8 1880.9,477.8 1880.9,503.3 1906.4,503.3 1906.4,525.1 	"/>
</g>
<g id="swiss-cross-21">
	<polygon class="st0" points="1595.5,544.1 1595.5,613.8 1535.7,613.8 1535.7,544.1 1466,544.1 1466,484.3 1535.7,484.3 
		1535.7,414.6 1595.5,414.6 1595.5,484.3 1665.2,484.3 1665.2,544.1 	"/>
</g>
<g id="swiss-cross-22">
	<polygon class="st0" points="1401.9,802.4 1401.9,856 1355.9,856 1355.9,802.4 1302.3,802.4 1302.3,756.4 1355.9,756.4 
		1355.9,702.8 1401.9,702.8 1401.9,756.4 1455.5,756.4 1455.5,802.4 	"/>
</g>
<g id="swiss-cross-23">
	<polygon class="st0" points="1465.8,84.3 1465.8,113.2 1441.1,113.2 1441.1,84.3 1412.2,84.3 1412.2,59.6 1441.1,59.6 1441.1,30.8 
		1465.8,30.8 1465.8,59.6 1494.6,59.6 1494.6,84.3 	"/>
</g>
</svg>
