<?xml version="1.0" encoding="utf-8"?>
<!-- Generator: Adobe Illustrator 19.2.1, SVG Export Plug-In . SVG Version: 6.00 Build 0)  -->
<!DOCTYPE svg PUBLIC "-//W3C//DTD SVG 1.1//EN" "http://www.w3.org/Graphics/SVG/1.1/DTD/svg11.dtd">
<svg version="1.1" id="Layer_1" xmlns="http://www.w3.org/2000/svg" xmlns:xlink="http://www.w3.org/1999/xlink" x="0px" y="0px"
	 width="97.6px" height="95.2px" viewBox="0 0 97.6 95.2" style="enable-background:new 0 0 97.6 95.2;" xml:space="preserve">
<style type="text/css">
	.st0{fill:#404040;}
</style>
<title>github</title>
<path id="RSS" class="st0" d="M26.9,69.4c1.9,1.9,3.1,4.6,3.1,7.5c0,2.9-1.2,5.5-3.1,7.5l0,0c-1.9,1.9-4.6,3.1-7.5,3.1
	c-2.9,0-5.6-1.2-7.5-3.1c-1.9-1.9-3.1-4.6-3.1-7.5c0-2.9,1.2-5.6,3.1-7.5v0c1.9-1.9,4.6-3.1,7.5-3.1C22.4,66.3,25,67.5,26.9,69.4z
	 M26.9,69.4L26.9,69.4C26.9,69.4,26.9,69.4,26.9,69.4L26.9,69.4z M11.9,84.4C11.9,84.4,11.9,84.4,11.9,84.4
	C11.9,84.4,11.9,84.4,11.9,84.4L11.9,84.4z M8.8,34.8v15.3c10,0,19.4,3.9,26.5,11c7.1,7,11,16.5,11,26.5h0v0h15.3
	c0-14.6-5.9-27.7-15.5-37.3C36.5,40.7,23.4,34.8,8.8,34.8z M8.8,7.6v15.3c35.6,0,64.6,29,64.7,64.7h15.3c0-22.1-9-42-23.5-56.5
	C50.8,16.6,30.9,7.6,8.8,7.6z"/>
</svg>
