<?xml version="1.0" encoding="utf-8"?>
<!-- Generator: Adobe Illustrator 19.2.1, SVG Export Plug-In . SVG Version: 6.00 Build 0)  -->
<!DOCTYPE svg PUBLIC "-//W3C//DTD SVG 1.1//EN" "http://www.w3.org/Graphics/SVG/1.1/DTD/svg11.dtd">
<svg version="1.1" id="Layer_1" xmlns="http://www.w3.org/2000/svg" xmlns:xlink="http://www.w3.org/1999/xlink" x="0px" y="0px"
	 width="97.6px" height="95.2px" viewBox="0 0 97.6 95.2" style="enable-background:new 0 0 97.6 95.2;" xml:space="preserve">
<style type="text/css">
	.st0{fill:#404040;}
</style>
<title>github</title>
<path class="st0" d="M94.2,19.4c-3.3,1.5-6.9,2.5-10.7,2.9c3.9-2.3,6.8-6,8.2-10.3c-3.6,2.1-7.6,3.7-11.8,4.5
	c-3.4-3.6-8.2-5.9-13.6-5.9C56,10.6,47.6,19,47.6,29.3c0,1.5,0.2,2.9,0.5,4.2c-15.5-0.8-29.2-8.2-38.4-19.5c-1.6,2.8-2.5,6-2.5,9.4
	c0,6.5,3.3,12.2,8.3,15.5C12.4,38.9,9.5,38,7,36.6c0,0.1,0,0.2,0,0.2c0,9,6.4,16.6,15,18.3c-1.6,0.4-3.2,0.7-4.9,0.7
	c-1.2,0-2.4-0.1-3.5-0.3c2.4,7.4,9.3,12.8,17.4,13c-6.4,5-14.4,8-23.2,8c-1.5,0-3-0.1-4.4-0.3c8.3,5.3,18.1,8.4,28.6,8.4
	C66.2,84.5,85,56.1,85,31.5c0-0.8,0-1.6-0.1-2.4C88.6,26.4,91.7,23.1,94.2,19.4z"/>
</svg>
