<svg id="Layer_1" data-name="Layer 1" xmlns="http://www.w3.org/2000/svg" viewBox="0 0 1906.4 938.86"><defs><style>.cls-1{fill:#3bcc78;}</style></defs><title>crosses</title><g id="swiss-cross"><polygon class="cls-1" points="139.01 121.21 139.01 178.6 89.81 178.6 89.81 121.21 32.43 121.21 32.43 72.03 89.81 72.03 89.81 14.64 139.01 14.64 139.01 72.03 196.4 72.03 196.4 121.21 139.01 121.21"/></g><g id="swiss-cross-2" data-name="swiss-cross"><polygon class="cls-1" points="284.55 329.11 284.55 366.88 252.18 366.88 252.18 329.11 214.42 329.11 214.42 296.75 252.18 296.75 252.18 258.99 284.55 258.99 284.55 296.75 322.31 296.75 322.31 329.11 284.55 329.11"/></g><g id="swiss-cross-3" data-name="swiss-cross"><polygon class="cls-1" points="652.49 385.57 652.49 429.21 615.09 429.21 615.09 385.57 571.46 385.57 571.46 348.18 615.09 348.18 615.09 304.54 652.49 304.54 652.49 348.18 696.13 348.18 696.13 385.57 652.49 385.57"/></g><g id="swiss-cross-4" data-name="swiss-cross"><polygon class="cls-1" points="1024.11 856.07 1024.11 889.8 995.19 889.8 995.19 856.07 961.45 856.07 961.45 827.15 995.19 827.15 995.19 793.42 1024.11 793.42 1024.11 827.15 1057.84 827.15 1057.84 856.07 1024.11 856.07"/></g><g id="swiss-cross-5" data-name="swiss-cross"><polygon class="cls-1" points="1705.59 345.93 1705.59 386.87 1670.49 386.87 1670.49 345.93 1629.55 345.93 1629.55 310.83 1670.49 310.83 1670.49 269.89 1705.59 269.89 1705.59 310.83 1746.54 310.83 1746.54 345.93 1705.59 345.93"/></g><g id="swiss-cross-6" data-name="swiss-cross"><polygon class="cls-1" points="863.68 182.16 863.68 233.94 819.3 233.94 819.3 182.16 767.52 182.16 767.52 137.79 819.3 137.79 819.3 86.02 863.68 86.02 863.68 137.79 915.45 137.79 915.45 182.16 863.68 182.16"/></g><g id="swiss-cross-7" data-name="swiss-cross"><polygon class="cls-1" points="1251.86 100.99 1251.86 151.43 1208.63 151.43 1208.63 100.99 1158.2 100.99 1158.2 57.76 1208.63 57.76 1208.63 7.33 1251.86 7.33 1251.86 57.76 1302.3 57.76 1302.3 100.99 1251.86 100.99"/></g><g id="swiss-cross-8" data-name="swiss-cross"><polygon class="cls-1" points="1327.32 337.47 1327.32 355.3 1312.03 355.3 1312.03 337.47 1294.2 337.47 1294.2 322.18 1312.03 322.18 1312.03 304.35 1327.32 304.35 1327.32 322.18 1345.15 322.18 1345.15 337.47 1327.32 337.47"/></g><g id="swiss-cross-9" data-name="swiss-cross"><polygon class="cls-1" points="1803.92 771.69 1803.92 821.18 1761.49 821.18 1761.49 771.69 1712 771.69 1712 729.27 1761.49 729.27 1761.49 679.78 1803.92 679.78 1803.92 729.27 1853.41 729.27 1853.41 771.69 1803.92 771.69"/></g><g id="swiss-cross-10" data-name="swiss-cross"><polygon class="cls-1" points="1799.4 89.44 1799.4 137.6 1758.12 137.6 1758.12 89.44 1709.96 89.44 1709.96 48.16 1758.12 48.16 1758.12 0 1799.4 0 1799.4 48.16 1847.56 48.16 1847.56 89.44 1799.4 89.44"/></g><g id="swiss-cross-11" data-name="swiss-cross"><polygon class="cls-1" points="594.55 864.71 594.55 918.59 548.36 918.59 548.36 864.71 494.47 864.71 494.47 818.52 548.36 818.52 548.36 764.63 594.55 764.63 594.55 818.52 648.44 818.52 648.44 864.71 594.55 864.71"/></g><g id="swiss-cross-12" data-name="swiss-cross"><polygon class="cls-1" points="75.14 834.54 75.14 875 40.46 875 40.46 834.54 0 834.54 0 799.86 40.46 799.86 40.46 759.4 75.14 759.4 75.14 799.86 115.61 799.86 115.61 834.54 75.14 834.54"/></g><g id="swiss-cross-13" data-name="swiss-cross"><polygon class="cls-1" points="154.05 572.85 154.05 624.67 109.63 624.67 109.63 572.85 57.8 572.85 57.8 528.44 109.63 528.44 109.63 476.61 154.05 476.61 154.05 528.44 205.87 528.44 205.87 572.85 154.05 572.85"/></g><g id="swiss-cross-14" data-name="swiss-cross"><polygon class="cls-1" points="537.4 104.81 537.4 136.56 510.19 136.56 510.19 104.81 478.44 104.81 478.44 77.59 510.19 77.59 510.19 45.84 537.4 45.84 537.4 77.59 569.16 77.59 569.16 104.81 537.4 104.81"/></g><g id="swiss-cross-15" data-name="swiss-cross"><polygon class="cls-1" points="448.29 582.09 448.29 618.65 416.95 618.65 416.95 582.09 380.4 582.09 380.4 550.76 416.95 550.76 416.95 514.2 448.29 514.2 448.29 550.76 484.85 550.76 484.85 582.09 448.29 582.09"/></g><g id="swiss-cross-16" data-name="swiss-cross"><polygon class="cls-1" points="1052.92 376.4 1052.92 425.65 1010.7 425.65 1010.7 376.4 961.45 376.4 961.45 334.19 1010.7 334.19 1010.7 284.94 1052.92 284.94 1052.92 334.19 1102.17 334.19 1102.17 376.4 1052.92 376.4"/></g><g id="swiss-cross-17" data-name="swiss-cross"><polygon class="cls-1" points="1153.39 636.49 1153.39 664.07 1129.75 664.07 1129.75 636.49 1102.17 636.49 1102.17 612.86 1129.75 612.86 1129.75 585.28 1153.39 585.28 1153.39 612.86 1180.96 612.86 1180.96 636.49 1153.39 636.49"/></g><g id="swiss-cross-18" data-name="swiss-cross"><polygon class="cls-1" points="845.05 635.19 845.05 685.1 802.26 685.1 802.26 635.19 752.35 635.19 752.35 592.41 802.26 592.41 802.26 542.5 845.05 542.5 845.05 592.41 894.96 592.41 894.96 635.19 845.05 635.19"/></g><g id="swiss-cross-19" data-name="swiss-cross"><polygon class="cls-1" points="1620.45 920.91 1620.45 938.86 1605.07 938.86 1605.07 920.91 1587.13 920.91 1587.13 905.54 1605.07 905.54 1605.07 887.59 1620.45 887.59 1620.45 905.54 1638.4 905.54 1638.4 920.91 1620.45 920.91"/></g><g id="swiss-cross-20" data-name="swiss-cross"><polygon class="cls-1" points="1880.92 525.12 1880.92 550.59 1859.08 550.59 1859.08 525.12 1833.61 525.12 1833.61 503.28 1859.08 503.28 1859.08 477.81 1880.92 477.81 1880.92 503.28 1906.4 503.28 1906.4 525.12 1880.92 525.12"/></g><g id="swiss-cross-21" data-name="swiss-cross"><polygon class="cls-1" points="1595.47 544.08 1595.47 613.8 1535.7 613.8 1535.7 544.08 1465.98 544.08 1465.98 484.32 1535.7 484.32 1535.7 414.6 1595.47 414.6 1595.47 484.32 1665.19 484.32 1665.19 544.08 1595.47 544.08"/></g><g id="swiss-cross-22" data-name="swiss-cross"><polygon class="cls-1" points="1401.88 802.36 1401.88 855.98 1355.92 855.98 1355.92 802.36 1302.3 802.36 1302.3 756.41 1355.92 756.41 1355.92 702.79 1401.88 702.79 1401.88 756.41 1455.5 756.41 1455.5 802.36 1401.88 802.36"/></g><g id="swiss-cross-23" data-name="swiss-cross"><polygon class="cls-1" points="1465.77 84.31 1465.77 113.15 1441.05 113.15 1441.05 84.31 1412.2 84.31 1412.2 59.59 1441.05 59.59 1441.05 30.75 1465.77 30.75 1465.77 59.59 1494.62 59.59 1494.62 84.31 1465.77 84.31"/></g></svg>