<svg id="Layer_1" xmlns="http://www.w3.org/2000/svg" width="1906.4" height="938.9" viewBox="0 0 1906.4 938.9"><style>.st0{fill:#30cc72}</style><title>crosses</title><path class="st0" d="M139 121.2v57.4H89.8v-57.4H32.4V72h57.4V14.6H139V72h57.4v49.2z" id="swiss-cross"/><path class="st0" d="M284.5 329.1v37.8h-32.3v-37.8h-37.8v-32.3h37.8V259h32.3v37.8h37.8v32.3z" id="swiss-cross-2"/><path class="st0" d="M652.5 385.6v43.6h-37.4v-43.6h-43.6v-37.4h43.6v-43.7h37.4v43.7h43.6v37.4z" id="swiss-cross-3"/><path class="st0" d="M1024.1 856.1v33.7h-28.9v-33.7h-33.7v-28.9h33.7v-33.8h28.9v33.8h33.7v28.9z" id="swiss-cross-4"/><path class="st0" d="M1705.6 345.9v41h-35.1v-41h-40.9v-35.1h40.9v-40.9h35.1v40.9h40.9v35.1z" id="swiss-cross-5"/><path class="st0" d="M863.7 182.2v51.7h-44.4v-51.7h-51.8v-44.4h51.8V86h44.4v51.8h51.8v44.4z" id="swiss-cross-6"/><path class="st0" d="M1251.9 101v50.4h-43.3V101h-50.4V57.8h50.4V7.3h43.3v50.5h50.4V101z" id="swiss-cross-7"/><path class="st0" d="M1327.3 337.5v17.8H1312v-17.8h-17.8v-15.3h17.8v-17.8h15.3v17.8h17.9v15.3z" id="swiss-cross-8"/><path class="st0" d="M1803.9 771.7v49.5h-42.4v-49.5H1712v-42.4h49.5v-49.5h42.4v49.5h49.5v42.4z" id="swiss-cross-9"/><path class="st0" d="M1799.4 89.4v48.2h-41.3V89.4H1710V48.2h48.1V0h41.3v48.2h48.2v41.2z" id="swiss-cross-10"/><path class="st0" d="M594.5 864.7v53.9h-46.1v-53.9h-53.9v-46.2h53.9v-53.9h46.1v53.9h53.9v46.2z" id="swiss-cross-11"/><path class="st0" d="M75.1 834.5V875H40.5v-40.5H0v-34.6h40.5v-40.5h34.6v40.5h40.5v34.6z" id="swiss-cross-12"/><path class="st0" d="M154.1 572.9v51.8h-44.5v-51.8H57.8v-44.5h51.8v-51.8h44.5v51.8h51.8v44.5z" id="swiss-cross-13"/><path class="st0" d="M537.4 104.8v31.8h-27.2v-31.8h-31.8V77.6h31.8V45.8h27.2v31.8h31.8v27.2z" id="swiss-cross-14"/><path class="st0" d="M448.3 582.1v36.6H417v-36.6h-36.6v-31.3H417v-36.6h31.3v36.6h36.6v31.3z" id="swiss-cross-15"/><path class="st0" d="M1052.9 376.4v49.3h-42.2v-49.3h-49.2v-42.2h49.2v-49.3h42.2v49.3h49.3v42.2z" id="swiss-cross-16"/><path class="st0" d="M1153.4 636.5v27.6h-23.6v-27.6h-27.6v-23.6h27.6v-27.6h23.6v27.6h27.6v23.6z" id="swiss-cross-17"/><path class="st0" d="M845 635.2v49.9h-42.7v-49.9h-50v-42.8h50v-49.9H845v49.9h50v42.8z" id="swiss-cross-18"/><path class="st0" d="M1620.4 920.9v18h-15.3v-18h-18v-15.4h18v-17.9h15.3v17.9h18v15.4z" id="swiss-cross-19"/><path class="st0" d="M1880.9 525.1v25.5h-21.8v-25.5h-25.5v-21.8h25.5v-25.5h21.8v25.5h25.5v21.8z" id="swiss-cross-20"/><path class="st0" d="M1595.5 544.1v69.7h-59.8v-69.7H1466v-59.8h69.7v-69.7h59.8v69.7h69.7v59.8z" id="swiss-cross-21"/><path class="st0" d="M1401.9 802.4V856h-46v-53.6h-53.6v-46h53.6v-53.6h46v53.6h53.6v46z" id="swiss-cross-22"/><path class="st0" d="M1465.8 84.3v28.9h-24.7V84.3h-28.9V59.6h28.9V30.8h24.7v28.8h28.8v24.7z" id="swiss-cross-23"/></svg>