<svg id="Layer_1" data-name="Layer 1" xmlns="http://www.w3.org/2000/svg" viewBox="0 0 97.56 95.16"><defs><style>.cls-1{fill:#404040;fill-rule:evenodd}</style></defs><title>github</title><path class="cls-1" d="M60.61 12.75a48.79 48.79 0 0 0-15.42 95.07c2.44.45 3.33-1.06 3.33-2.35s0-4.23-.07-8.3C34.88 100.12 32 90.63 32 90.63c-2.2-5.63-5.4-7.13-5.4-7.13-4.43-3 .34-3 .34-3 4.9.34 7.47 5 7.47 5 4.35 7.45 11.42 5.3 14.2 4.05a10.42 10.42 0 0 1 3.1-6.52C40.87 81.86 29.49 77.68 29.49 59a18.86 18.86 0 0 1 5-13.09C34 44.66 32.33 39.7 35 33c0 0 4.1-1.31 13.41 5a46.24 46.24 0 0 1 24.43 0c9.31-6.31 13.4-5 13.4-5 2.66 6.72 1 11.68.49 12.91a18.82 18.82 0 0 1 5 13.09c0 18.74-11.41 22.86-22.27 24.07 1.75 1.51 3.31 4.48 3.31 9 0 6.52-.06 11.78-.06 13.38 0 1.3.88 2.82 3.35 2.35a48.79 48.79 0 0 0-15.45-95.05z" transform="translate(-11.83 -12.75)"/></svg>