<svg id="Layer_1" xmlns="http://www.w3.org/2000/svg" width="97.6" height="95.2" viewBox="0 0 97.6 95.2"><style>.st0{fill:#404040}</style><title>github</title><path id="RSS" class="st0" d="M26.9 69.4c1.9 1.9 3.1 4.6 3.1 7.5 0 2.9-1.2 5.5-3.1 7.5-1.9 1.9-4.6 3.1-7.5 3.1-2.9 0-5.6-1.2-7.5-3.1-1.9-1.9-3.1-4.6-3.1-7.5 0-2.9 1.2-5.6 3.1-7.5 1.9-1.9 4.6-3.1 7.5-3.1 3 0 5.6 1.2 7.5 3.1zm0 0zm-15 15zM8.8 34.8v15.3c10 0 19.4 3.9 26.5 11 7.1 7 11 16.5 11 26.5h15.3c0-14.6-5.9-27.7-15.5-37.3-9.6-9.6-22.7-15.5-37.3-15.5zm0-27.2v15.3c35.6 0 64.6 29 64.7 64.7h15.3c0-22.1-9-42-23.5-56.5S30.9 7.6 8.8 7.6z"/></svg>