<svg id="Layer_1" xmlns="http://www.w3.org/2000/svg" width="97.6" height="95.2" viewBox="0 0 97.6 95.2"><style>.st0{fill:#404040}</style><title>github</title><path class="st0" d="M94.2 19.4c-3.3 1.5-6.9 2.5-10.7 2.9 3.9-2.3 6.8-6 8.2-10.3-3.6 2.1-7.6 3.7-11.8 4.5-3.4-3.6-8.2-5.9-13.6-5.9-10.3 0-18.7 8.4-18.7 18.7 0 1.5.2 2.9.5 4.2-15.5-.8-29.2-8.2-38.4-19.5-1.6 2.8-2.5 6-2.5 9.4 0 6.5 3.3 12.2 8.3 15.5-3.1 0-6-.9-8.5-2.3v.2c0 9 6.4 16.6 15 18.3-1.6.4-3.2.7-4.9.7-1.2 0-2.4-.1-3.5-.3 2.4 7.4 9.3 12.8 17.4 13-6.4 5-14.4 8-23.2 8-1.5 0-3-.1-4.4-.3 8.3 5.3 18.1 8.4 28.6 8.4 34.2-.1 53-28.5 53-53.1 0-.8 0-1.6-.1-2.4 3.7-2.7 6.8-6 9.3-9.7z"/></svg>